<svg width="48" height="48" viewBox="0 0 48 48" xmlns="http://www.w3.org/2000/svg">
  <!-- 背景圆 -->
  <circle cx="24" cy="24" r="20" fill="#f8f9fa" stroke="#e0e0e0" stroke-width="1"/>
  
  <!-- 编织物主体 --<path d="M16,20 C16,20 18,16 24,16 C30,16 32,20 32,20 L32,28 C32,28 30,32 24,32 C18,32 16,28 16,28 Z" fill="#BA68C8" opacity="0.2" stroke="#9C27B0" stroke-width="1.5" stroke-linejoin="round"/>
  
  <!-- 编织纹理 --<path d="M16,20 L32,20 M16,22 L32,22 M16,24 L32,24 M16,26 L32,26 M16,28 L32,28" fill="none" stroke="#7B1FA2" stroke-width="1" opacity="0.5"/>
  <path d="M18,18 L18,30 M20,18 L20,30 M22,18 L22,30 M24,18 L24,30 M26,18 L26,30 M28,18 L28,30 M30,18 L30,30" fill="none" stroke="#7B1FA2" stroke-width="1" opacity="0.5"/>
  
  <!-- 毛线团 --<path d="M38,20 C38,15 34,12 30,12 C28,12 26,13 26,15 C26,17 28,18 30,18 C32,18 34,17 35,15" fill="#CE93D8" stroke="#7B1FA2" stroke-width="1.5" stroke-linecap="round" stroke-linejoin="round"/>
  <path d="M34,14 C34,14 35,13 36,14 C37,15 36,16 35,16 C34,16 33,15 33,14" fill="none" stroke="#9C27B0" stroke-width="1" stroke-linecap="round" stroke-linejoin="round"/>
  
  <!-- 织针 --<path d="M12,18 L16,20 M10,22 L14,24 M12,26 L16,28" fill="none" stroke="#795548" stroke-width="1.5" stroke-linecap="round"/>
  
  <!-- 毛线球 --<circle cx="10" cy="34" r="3" fill="#FF80AB" stroke="#C2185B" stroke-width="1"/>
  <circle cx="10" cy="34" r="2" fill="#FF80AB" stroke="#E91E63" stroke-width="1" opacity="0.7"/>
  <circle cx="10" cy="34" r="1" fill="#FFB74D" opacity="0.5"/>
  
  <!-- 装饰元素 --<path d="M18,34 L20,36 M22,32 L24,34 M26,36 L28,38 M30,34 L32,36" fill="none" stroke="#D81B60" stroke-width="1" stroke-linecap="round"/>
  <path d="M36,28 L38,30 M38,32 L40,34" fill="none" stroke="#D81B60" stroke-width="1" stroke-linecap="round"/>
</svg>